<?xml version="1.0" encoding="utf-8"?>
<!-- Generator: Adobe Illustrator 21.0.0, SVG Export Plug-In . SVG Version: 6.00 Build 0)  -->
<svg version="1.1" xmlns="http://www.w3.org/2000/svg" xmlns:xlink="http://www.w3.org/1999/xlink" x="0px" y="0px"
	 viewBox="0 0 512 512" style="enable-background:new 0 0 512 512;" xml:space="preserve">
<style type="text/css">
	.st0{display:none;}
	.st1{fill:#2E4FA2;}
</style>
<g id="Layer_2" class="st0">
	
		<image style="display:inline;overflow:visible;" width="1000" height="951" xlink:href="827A8722.jpg"  transform="matrix(1 0 0 1 -476.3333 -226.1667)">
	</image>
</g>
<g id="Layer_5">
</g>
<g id="Layer_4">
	<g>
		<path class="st1" d="M175.2,242.6L175.2,242.6c-10.7,0-19.5,8.7-19.5,19.5v0.9c0,10.7,8.7,19.5,19.5,19.5h0.9
			c10.7,0,19.5-8.7,19.5-19.5v0c0-10.7,8.7-19.5,19.5-19.5h0c10.7,0,19.5-8.7,19.5-19.5v-0.9c0-10.7-8.7-19.5-19.5-19.5h-0.9
			c-10.7,0-19.5,8.7-19.5,19.5v0C194.6,233.9,185.9,242.6,175.2,242.6z"/>
	</g>
	<g>
		<path class="st1" d="M216,322.3H215c-10.7,0-19.5-8.7-19.5-19.5v-0.9c0-10.7,8.7-19.5,19.5-19.5h0.9c10.7,0,19.5,8.7,19.5,19.5
			v0.9C235.4,313.6,226.7,322.3,216,322.3z"/>
	</g>
	<g>
		<path class="st1" d="M294.7,243.5h-0.9c-10.7,0-19.5-8.7-19.5-19.5v-0.9c0-10.7,8.7-19.5,19.5-19.5h0.9c10.7,0,19.5,8.7,19.5,19.5
			v0.9C314.2,234.8,305.5,243.5,294.7,243.5z"/>
	</g>
	<g>
		<path class="st1" d="M175.7,203.2h-0.9c-10.7,0-19.5-8.7-19.5-19.5v-0.9c0-10.7,8.7-19.5,19.5-19.5h0.9c10.7,0,19.5,8.7,19.5,19.5
			v0.9C195.1,194.5,186.4,203.2,175.7,203.2z"/>
	</g>
	<g>
		<path class="st1" d="M95.9,172.5H95c-10.7,0-19.5-8.7-19.5-19.5v-0.9c0-10.7,8.7-19.5,19.5-19.5h0.9c10.7,0,19.5,8.7,19.5,19.5
			v0.9C115.4,163.7,106.7,172.5,95.9,172.5z"/>
	</g>
	<g>
		<path class="st1" d="M135.8,243.5h-0.9c-10.7,0-19.5-8.7-19.5-19.5v-0.9c0-10.7,8.7-19.5,19.5-19.5h0.9c10.7,0,19.5,8.7,19.5,19.5
			v0.9C155.3,234.8,146.5,243.5,135.8,243.5z"/>
	</g>
	<g>
		<path class="st1" d="M85.4,293.9h-0.9c-10.7,0-19.5-8.7-19.5-19.5v-0.9c0-10.7,8.7-19.5,19.5-19.5h0.9c10.7,0,19.5,8.7,19.5,19.5
			v0.9C104.9,285.2,96.2,293.9,85.4,293.9z"/>
	</g>
	<g>
		<path class="st1" d="M124.5,367.4h-0.9c-10.7,0-19.5-8.7-19.5-19.5V347c0-10.7,8.7-19.5,19.5-19.5h0.9c10.7,0,19.5,8.7,19.5,19.5
			v0.9C144,358.7,135.3,367.4,124.5,367.4z"/>
	</g>
</g>
<g id="Layer_3">
	<path class="st1" d="M164.7,96.7h-47.2c-4.5,0-8.1-3.6-8.1-8.1c0-4.5,3.6-8.1,8.1-8.1h47.2c4.5,0,8.1,3.6,8.1,8.1
		C172.8,93.1,169.1,96.7,164.7,96.7z"/>
	<path class="st1" d="M204.5,145.5h-43.9c-4.5,0-8.1-3.6-8.1-8.1c0-4.5,3.6-8.1,8.1-8.1h43.9c4.5,0,8.1,3.6,8.1,8.1
		C212.6,141.9,209,145.5,204.5,145.5z"/>
	<path class="st1" d="M233.5,378.8h-43.9c-4.5,0-8.1-3.6-8.1-8.1s3.6-8.1,8.1-8.1h43.9c4.5,0,8.1,3.6,8.1,8.1S238,378.8,233.5,378.8
		z"/>
	<path class="st1" d="M180.8,419.5h-32.3c-4.5,0-8.1-3.6-8.1-8.1c0-4.5,3.6-8.1,8.1-8.1h32.3c4.5,0,8.1,3.6,8.1,8.1
		C188.9,415.9,185.3,419.5,180.8,419.5z"/>
	<path class="st1" d="M236.8,419.5h-31.6c-4.5,0-8.1-3.6-8.1-8.1c0-4.5,3.6-8.1,8.1-8.1h31.6c4.5,0,8.1,3.6,8.1,8.1
		C244.9,415.9,241.3,419.5,236.8,419.5z"/>
	<path class="st1" d="M265.1,378.8c-4.5,0-8.1-3.6-8.1-8.1s3.6-8.1,8.1-8.1c59.9,0,108.6-48.7,108.6-108.6S325,145.5,265.1,145.5
		h-35c-4.5,0-8.1-3.6-8.1-8.1c0-4.5,3.6-8.1,8.1-8.1h35c68.8,0,124.7,56,124.7,124.7S333.9,378.8,265.1,378.8z"/>
	<path class="st1" d="M265.5,419.5c-4.5,0-8.1-3.6-8.1-8.1c0-4.5,3.6-8.1,8.1-8.1c84.5,0,153.3-68.8,153.3-153.3
		S350,96.7,265.5,96.7h-73.1c-4.5,0-8.1-3.6-8.1-8.1c0-4.5,3.6-8.1,8.1-8.1h73.1C359,80.5,435,156.5,435,250S359,419.5,265.5,419.5z
		"/>
</g>
</svg>
